<svg height="32" viewBox="0 0 32 32" width="32" xmlns="http://www.w3.org/2000/svg" xmlns:xlink="http://www.w3.org/1999/xlink"><linearGradient id="a" gradientUnits="userSpaceOnUse" x1="16" x2="16" y1="9.2" y2="30"><stop offset="0" stop-color="#27d5ca"/><stop offset="1" stop-color="#26b7f2"/></linearGradient><rect fill="url(#a)" height="26" rx="4" stroke="#071728" stroke-width="2.2" width="28" x="2" y="4"/><path d="m2 9.2v-2.4c0-1.55 1.25-2.8 2.8-2.8h22.4c1.55 0 2.8 1.25 2.8 2.8v4.2h-28z" fill="#ff3d2e" stroke="#071728" stroke-width="2.2"/><path d="m8.7 2.1v4.2" stroke="#071728" stroke-linecap="round" stroke-width="3.6"/><path d="m8.7 2.1v4.2" stroke="#2dbdf3" stroke-linecap="round" stroke-width="1.5"/><path d="m23.3 2.1v4.2" stroke="#071728" stroke-linecap="round" stroke-width="3.6"/><path d="m23.3 2.1v4.2" stroke="#2dbdf3" stroke-linecap="round" stroke-width="1.5"/><g stroke="#071728"><circle cx="16" cy="20.6" fill="#fff" r="6.7" stroke-width="2.1"/><path d="m16 14.8v.9" stroke-linecap="round" stroke-width="1.25"/><path d="m16 25.5v.9" stroke-linecap="round" stroke-width="1.25"/><path d="m10.2 20.6h.9" stroke-linecap="round" stroke-width="1.25"/><path d="m20.9 20.6h.9" stroke-linecap="round" stroke-width="1.25"/><path d="m16 20.6 3.9-3.7" stroke-linecap="round" stroke-width="1.45"/><path d="m16 20.6-3.3-2.5" stroke-linecap="round" stroke-width="1.45"/></g><circle cx="16" cy="20.6" fill="#071728" r="1.35"/></svg>